<?xml version="1.0" encoding="iso-8859-1"?>
<!-- Uploaded to: SVG Repo, www.svgrepo.com, Generator: SVG Repo Mixer Tools -->
<svg fill="#F0F0F0" height="800px" width="800px" version="1.1" id="Layer_1" xmlns="http://www.w3.org/2000/svg" xmlns:xlink="http://www.w3.org/1999/xlink" 
	 viewBox="0 0 512 512" xml:space="preserve">
<g>
	<g>
		<g>
			<path d="M437.019,74.981C388.666,26.629,324.38,0,256.001,0S123.334,26.629,74.981,74.981S0.001,187.62,0.001,256
				s26.629,132.667,74.981,181.019C123.334,485.37,187.62,512,256.001,512s132.667-26.629,181.018-74.981
				C485.371,388.667,511.999,324.38,511.999,256S485.372,123.333,437.019,74.981z M425.403,425.403
				c-45.25,45.248-105.412,70.169-169.403,70.169c-63.992,0-124.154-24.92-169.404-70.169C41.348,380.153,16.428,319.991,16.428,256
				s24.92-124.153,70.169-169.404c45.25-45.249,105.412-70.169,169.404-70.169s124.153,24.92,169.403,70.169
				c45.25,45.25,70.17,105.412,70.17,169.404S470.653,380.153,425.403,425.403z"/>
			<path d="M400.23,179.841c3.509-17.154,1.009-30.884-7.373-39.266c-6.986-6.988-17.688-9.893-30.99-8.638
				c-29.502-25.196-66.947-39.028-105.866-39.028c-33.497,0-64.666,10.155-90.596,27.543l-5.635-5.635
				c-3.208-3.207-8.409-3.207-11.615,0c-3.208,3.209-3.208,8.409,0,11.617l3.947,3.947c-5.732,4.75-11.132,9.886-16.167,15.365
				l-3.547-3.547c-3.208-3.207-8.409-3.207-11.616,0c-3.208,3.209-3.208,8.409,0,11.616l4.617,4.617
				c-4.55,6.076-8.681,12.483-12.362,19.17l-8.02-8.02c-3.208-3.207-8.409-3.207-11.615,0c-3.208,3.209-3.208,8.409,0,11.616
				l12.071,12.072C97.383,212.592,92.911,233.783,92.911,256c0,39.312,13.992,76.838,39.53,106.441
				c-2.599,4.572-3.876,9.786-3.64,15.17c0.331,7.548,3.581,14.515,9.152,19.619c5.429,4.973,12.289,7.424,19.122,7.424
				c6.604-0.001,13.179-2.297,18.41-6.812c24.468,13.913,52.161,21.248,80.519,21.248c28.37,0,56.075-7.341,80.552-21.265
				c5.128,4.398,11.609,6.832,18.385,6.832c7.917,0,15.521-3.347,20.862-9.18c5.105-5.569,7.734-12.794,7.403-20.341
				c-0.199-4.544-1.463-8.876-3.632-12.705c25.532-29.603,39.522-67.126,39.522-106.433
				C419.092,229.43,412.568,203.179,400.23,179.841z M381.241,152.189c5.31,5.312,5.527,17.712,0.583,33.174
				c-4.772,14.921-14.006,30.975-22.98,39.948c-12.915,12.916-31.337,17.177-45.84,10.602c-3.2-1.451-6.97-0.705-9.376,1.855
				l-25.724,27.364l-9.912-9.319l27.67-26.012c2.559-2.407,3.306-6.177,1.854-9.376c-6.574-14.503-2.315-32.925,10.601-45.839
				c8.974-8.974,25.029-18.209,39.949-22.981C363.529,146.659,375.931,146.879,381.241,152.189z M256.001,109.337
				c30.726,0,60.424,9.591,85.169,27.261c-16.876,5.727-34.232,15.94-44.667,26.373c-16.154,16.152-22.24,39.027-16.091,58.621
				l-24.411,22.948l-24.453-22.986c5.119-17.5-1.777-36.732-19.837-54.794l-9.589-9.589c-0.13-0.13-0.269-0.247-0.406-0.367
				c-0.12-0.138-0.237-0.277-0.368-0.407l-24.082-24.082C200.026,117.773,227.046,109.337,256.001,109.337z M163.773,142.055
				l20.924,20.924l-15.766,15.766l-21.381-21.38C152.561,151.861,157.989,146.745,163.773,142.055z M137.139,170.184l20.177,20.177
				l-15.766,15.766l-16.376-16.376C128.657,182.903,132.664,176.364,137.139,170.184z M109.335,256
				c0-17.571,3.109-34.427,8.801-50.054l16.831,16.831c0.13,0.13,0.269,0.246,0.406,0.367c0.12,0.138,0.237,0.277,0.368,0.407
				l9.587,9.587c14.026,14.026,29.038,21.439,43.413,21.44c0,0,0,0,0.001,0c3.871,0,7.677-0.54,11.372-1.61l22.013,23.415
				l-78.53,73.821C121.45,323.824,109.335,290.686,109.335,256z M165.801,384.384c-4.418,4.82-11.933,5.149-16.755,0.733
				c-2.336-2.14-3.698-5.061-3.836-8.225c-0.138-3.164,0.964-6.192,3.107-8.532c0.241-0.263,0.508-0.526,0.807-0.803l84.255-79.204
				l11.349,12.072L165.801,384.384z M256.001,402.664c-24.11,0-47.683-5.885-68.77-17.092l68.771-73.155l68.772,73.154
				C303.686,396.779,280.11,402.664,256.001,402.664z M363.686,384.383c-2.272,2.482-5.379,3.848-8.748,3.848
				c-2.969,0-5.812-1.106-8.024-3.132c-0.215-0.195-0.47-0.452-0.784-0.794L208.371,237.768c-1.588-1.69-3.767-2.588-5.986-2.588
				c-1.144,0-2.301,0.24-3.389,0.733c-3.275,1.485-6.724,2.239-10.252,2.239c-0.001,0-0.001,0-0.001,0
				c-12.537-0.001-24.212-9.044-31.798-16.629l-3.779-3.778l43.148-43.148l3.78,3.78c8.596,8.598,21.897,25.492,14.389,42.051
				c-1.451,3.2-0.705,6.969,1.854,9.377L362.952,367.63c2.336,2.141,3.698,5.063,3.837,8.228
				C366.93,379.02,365.828,382.047,363.686,384.383z M368.403,350.205l-78.53-73.822l21.964-23.364
				c19.592,6.146,42.467,0.062,58.621-16.091c8.254-8.253,16.371-20.843,22.242-34.097c6.544,16.862,9.965,34.93,9.965,53.169
				C402.665,290.686,390.55,323.824,368.403,350.205z"/>
		</g>
	</g>
</g>
</svg>