<?xml version="1.0" encoding="iso-8859-1"?>
<!-- Uploaded to: SVG Repo, www.svgrepo.com, Generator: SVG Repo Mixer Tools -->
<svg fill="#f0f0f0" height="800px" width="800px" version="1.1" id="Layer_1" xmlns="http://www.w3.org/2000/svg" xmlns:xlink="http://www.w3.org/1999/xlink" 
	 viewBox="0 0 205.582 205.582" xml:space="preserve">
<g>
	<g>
		<g>
			<path d="M196.243,83.689c-2.739-3.614-5.418-6.845-7.781-9.695c-8.767-10.576-14.559-17.563-14.559-31.939
				c0-21.914-69.363-23.617-90.621-23.617c-0.151,0-0.301,0.009-0.453,0.027c-2.185,0.271-53.634,7.027-62.369,44.061
				c-2.039,8.638-5.853,17.158-9.542,25.397c-11.074,24.739-22.525,50.318,13.522,79.329c19.33,15.559,35.183,19.893,49.078,19.893
				c9.189,0,17.522-1.896,25.431-3.695c9.274-2.109,18.029-4.101,27.214-2.881c4.523,0.603,9.046,1.344,13.492,2.071
				c25.24,4.132,51.345,8.407,58.886-18.706C204.408,142.84,211.915,104.365,196.243,83.689z M191.42,161.953
				c-5.487,19.73-22.795,17.944-50.572,13.394c-4.518-0.74-9.115-1.492-13.711-2.104c-10.497-1.404-20.326,0.837-29.828,3
				c-19.131,4.353-38.912,8.853-68.237-14.747c-31.605-25.439-22.247-46.345-11.41-70.553c3.828-8.553,7.789-17.399,9.988-26.721
				c7.3-30.938,52.416-37.906,55.879-38.395c40.125,0.027,82.984,6.54,82.984,16.227c0,17.04,7.175,25.697,16.261,36.657
				c2.428,2.928,4.94,5.957,7.581,9.441C200.396,101.4,200.784,128.298,191.42,161.953z"/>
			<path d="M81.61,63.246c-21.392,0-38.797,17.405-38.797,38.797s17.405,38.796,38.797,38.796c21.392,0,38.797-17.405,38.797-38.797
				C120.407,80.65,103.002,63.246,81.61,63.246z M81.61,133.449c-17.318,0-31.407-14.089-31.407-31.407
				c0-17.318,14.089-31.407,31.407-31.407s31.407,14.089,31.407,31.407C113.017,119.36,98.928,133.449,81.61,133.449z"/>
			<path d="M81.61,74.331c-15.281,0-27.712,12.431-27.712,27.712c0,2.04,1.655,3.695,3.695,3.695c2.04,0,3.695-1.655,3.695-3.695
				c0-11.206,9.116-20.322,20.322-20.322c2.04,0,3.695-1.655,3.695-3.695C85.305,75.986,83.65,74.331,81.61,74.331z"/>
		</g>
	</g>
</g>
</svg>