<?xml version="1.0" encoding="iso-8859-1"?>
<!-- Uploaded to: SVG Repo, www.svgrepo.com, Generator: SVG Repo Mixer Tools -->
<!DOCTYPE svg PUBLIC "-//W3C//DTD SVG 1.1//EN" "http://www.w3.org/Graphics/SVG/1.1/DTD/svg11.dtd">
<svg fill="#f0f0f0" version="1.1" id="Capa_1" xmlns="http://www.w3.org/2000/svg" xmlns:xlink="http://www.w3.org/1999/xlink" 
	 width="800px" height="800px" viewBox="0 0 396.293 396.293"
	 xml:space="preserve">
<g>
	<path d="M310.89,164.902c35.834-0.401,64.866-29.662,64.866-65.589c0-36.177-29.433-65.608-65.608-65.608
		c-33.64,0-61.433,25.453-65.167,58.108h-95.085l-6.405-55.894c-0.35-3.051-2.525-5.582-5.489-6.385l-108-29.271
		c-3.997-1.085-8.117,1.279-9.201,5.277c-1.083,3.998,1.279,8.117,5.277,9.201l103.09,27.94l5.63,49.132H79.13
		c-2.124,0-4.148,0.9-5.57,2.478c-1.422,1.577-2.109,3.683-1.89,5.795l30,289.48c0.396,3.822,3.617,6.727,7.46,6.727h171.017
		c3.843,0,7.064-2.904,7.46-6.727l23.053-222.441c0-0.009,0.001-0.018,0.002-0.027L310.89,164.902z M310.146,48.706
		c27.906,0,50.608,22.703,50.608,50.608c0,27.134-21.467,49.342-48.308,50.55l5.159-49.777c0.219-2.112-0.468-4.218-1.89-5.795
		s-3.446-2.478-5.57-2.478h-50.049C263.732,67.453,284.789,48.706,310.146,48.706z M301.829,106.813l-5.392,52.032H157.575
		l-5.962-52.032H301.829z M136.515,106.813l5.962,52.032H92.838l-5.392-52.032H136.515z M273.384,381.295H115.891L94.392,173.846
		h49.803l16.391,143.035c0.438,3.824,3.682,6.646,7.442,6.646c0.285,0,0.573-0.017,0.863-0.049c4.115-0.472,7.069-4.19,6.597-8.306
		l-16.195-141.326h135.589L273.384,381.295z"/>
</g>
</svg>