<?xml version="1.0" encoding="iso-8859-1"?>
<!-- Uploaded to: SVG Repo, www.svgrepo.com, Generator: SVG Repo Mixer Tools -->
<!DOCTYPE svg PUBLIC "-//W3C//DTD SVG 1.1//EN" "http://www.w3.org/Graphics/SVG/1.1/DTD/svg11.dtd">
<svg fill="#f0f0f0" height="800px" width="800px" version="1.1" id="Capa_1" xmlns="http://www.w3.org/2000/svg" xmlns:xlink="http://www.w3.org/1999/xlink" 
	 viewBox="0 0 371.396 371.396" xml:space="preserve">
<g>
	<path d="M369.499,68.222c-2.387-5.404-6.734-9.555-12.24-11.687c-11.371-4.408-24.205,1.262-28.611,12.633l-35.898,92.68
		c-0.676-1.859-1.289-3.936-1.891-5.98c-2.584-8.785-5.801-19.719-16.701-24.699c-8.408-3.84-18.59-1.59-28.437,0.586
		c-7.016,1.551-14.27,3.158-19.441,2.162c-4.117-0.791-8.908-4.42-13.979-8.262c-7.541-5.713-16.09-12.189-26.602-12.189
		c-8.621,0-15.82,4.314-21.961,8.738c-7.346,0.91-13.646,5.24-17.25,11.348c-0.471,0.152-0.93,0.279-1.369,0.365
		c-5.168,0.994-12.424-0.613-19.439-2.164c-9.848-2.176-20.029-4.428-28.438-0.586c-10.9,4.98-14.117,15.914-16.703,24.699
		c-0.602,2.047-1.213,4.121-1.889,5.982L42.747,69.166c-4.404-11.371-17.24-17.039-28.607-12.631
		C8.632,58.668,4.284,62.818,1.897,68.22c-2.387,5.404-2.525,11.414-0.392,16.922l40.82,105.381H40.37
		c-3.916,0-7.172,3.012-7.477,6.916c-0.08,1.016-1.842,25.186,7.092,51.857c12.082,36.076,37.863,59.211,74.557,66.902
		c0.506,0.105,1.021,0.158,1.539,0.158h139.234c0.518,0,1.033-0.053,1.539-0.158c36.693-7.691,62.475-30.826,74.557-66.902
		c8.934-26.672,7.172-50.842,7.092-51.857c-0.305-3.904-3.561-6.916-7.477-6.916h-1.955l40.82-105.381
		C372.024,79.634,371.886,73.625,369.499,68.222z M166.624,137.017c4.613,0,8.367,3.754,8.367,8.367s-3.754,8.367-8.367,8.367
		s-8.367-3.754-8.367-8.367S162.011,137.017,166.624,137.017z M78.698,183.906c3.504-2.254,6.086-4.324,8.117-6.508
		c4.418-4.742,6.297-11.125,8.113-17.299c2.408-8.184,4.186-13.297,8.545-15.289c3.842-1.756,11.877,0.021,18.969,1.588
		c7.008,1.551,14.211,3.139,21.125,2.768c1.814,11.092,11.461,19.586,23.057,19.586c12.885,0,23.367-10.482,23.367-23.367
		c0-6.484-2.656-12.357-6.936-16.596c0.897-0.211,1.777-0.324,2.643-0.324c5.471,0,11.336,4.443,17.545,9.146
		c6.219,4.713,12.65,9.584,20.209,11.035c8.209,1.578,17.002-0.367,25.504-2.246c7.09-1.566,15.127-3.342,18.967-1.59
		c4.361,1.994,6.139,7.107,8.545,15.291c1.816,6.174,3.695,12.557,8.111,17.297c4.238,4.549,18.375,12.484,19.482,13.125h-47.906
		c1.799-11.121-2.607-22.545-11.988-29.592c-13.631-10.234-33.051-7.473-43.289,6.158c-1.195,1.592-1.709,3.592-1.428,5.561
		c0.279,1.969,1.33,3.746,2.92,4.941l17.221,12.932h-56.109c-2.283-14.17-14.533-24.709-28.99-24.709
		c-1.158,0-2.33,0.068-3.486,0.205c-7.797,0.926-14.767,4.83-19.627,10.998c-3.145,3.992-5.146,8.623-5.926,13.506H67.337
		C68.442,189.884,76.048,185.613,78.698,183.906z M241.347,188.101L218.88,171.23c5.152-2.393,11.428-1.947,16.279,1.695
		C239.974,176.543,242.247,182.398,241.347,188.101z M145.786,186.314l-24.41,2.895c0.473-1.023,1.068-2,1.783-2.908
		c2.381-3.02,5.793-4.932,9.609-5.385c0.572-0.068,1.152-0.102,1.723-0.102C139.038,180.814,143.14,182.947,145.786,186.314z
		 M15.491,79.722c-0.686-1.77-0.641-3.703,0.127-5.441c0.768-1.738,2.166-3.072,3.94-3.76c3.656-1.416,7.787,0.406,9.203,4.065
		l38.291,98.851c-1.268,0.734-9.74,5.5-12.443,7.27L15.491,79.722z M317.186,244.533c-10.359,30.936-31.438,50.051-62.662,56.824
		H116.872c-31.068-6.74-52.1-25.709-62.516-56.387c-5.375-15.828-6.488-30.986-6.625-39.447h275.945
		C323.55,213.878,322.46,228.787,317.186,244.533z M355.903,79.724L316.79,180.699c-2.707-1.766-11.152-6.512-12.445-7.264
		l38.289-98.85c1.418-3.658,5.549-5.479,9.207-4.063c1.771,0.686,3.17,2.02,3.938,3.758
		C356.546,76.019,356.591,77.953,355.903,79.724z"/>
</g>
</svg>