<?xml version="1.0" encoding="UTF-8"?>
<svg xmlns="http://www.w3.org/2000/svg" xmlns:xlink="http://www.w3.org/1999/xlink" width="25px" height="25px" viewBox="0 0 25 25" version="1.1">
<g id="surface1">
<path style=" stroke:none;fill-rule:nonzero;fill:rgb(0%,0%,0%);fill-opacity:1;" d="M 20.3125 6.699219 L 17.136719 4.898438 L 17.136719 2.929688 C 17.136719 2.644531 16.941406 2.402344 16.664062 2.34375 L 5.496094 0.0273438 C 5.320312 -0.0078125 5.140625 0.0351562 5 0.148438 C 4.863281 0.261719 4.78125 0.429688 4.78125 0.609375 L 4.78125 2.695312 L 0.417969 7.390625 C 0.316406 7.503906 0.261719 7.648438 0.261719 7.796875 L 0.261719 21.078125 C 0.261719 21.347656 0.4375 21.578125 0.691406 21.652344 L 12.4375 24.992188 C 12.59375 25.039062 12.765625 25.015625 12.90625 24.929688 L 20.078125 20.671875 C 20.214844 20.65625 20.34375 20.597656 20.441406 20.5 C 20.550781 20.390625 20.617188 20.238281 20.617188 20.082031 L 20.617188 7.21875 C 20.617188 7.003906 20.5 6.804688 20.3125 6.699219 Z M 19.03125 7.339844 L 13.519531 9.835938 L 16.445312 5.875 Z M 5.972656 1.339844 L 15.949219 3.414062 L 15.949219 4.820312 L 5.972656 2.746094 Z M 12.304688 23.714844 L 1.449219 20.628906 L 1.449219 8.242188 L 12.304688 10.816406 Z M 12.476562 10.246094 L 1.753906 7.703125 L 5.8125 3.332031 C 5.816406 3.332031 5.816406 3.328125 5.820312 3.324219 L 15.980469 5.433594 C 15.988281 5.449219 15.992188 5.464844 16 5.480469 Z M 19.425781 19.671875 L 12.898438 23.550781 L 12.898438 10.773438 L 19.425781 7.816406 Z M 19.425781 19.671875 "/>
<path style=" stroke:none;fill-rule:nonzero;fill:rgb(0%,0%,0%);fill-opacity:1;" d="M 2.535156 15.832031 C 2.667969 15.859375 2.769531 15.792969 2.777344 15.644531 L 2.835938 14.152344 L 2.859375 14.15625 L 3.351562 15.386719 C 3.421875 15.566406 3.496094 15.625 3.621094 15.648438 C 3.742188 15.671875 3.820312 15.640625 3.90625 15.492188 L 4.484375 14.464844 L 4.503906 14.46875 L 4.445312 15.957031 C 4.4375 16.105469 4.53125 16.210938 4.671875 16.234375 C 4.804688 16.257812 4.90625 16.195312 4.914062 16.046875 L 5.003906 13.804688 C 5.011719 13.628906 4.910156 13.5 4.738281 13.46875 C 4.585938 13.4375 4.515625 13.503906 4.429688 13.65625 L 3.664062 15.03125 L 3.648438 15.027344 L 2.984375 13.382812 C 2.910156 13.199219 2.84375 13.113281 2.695312 13.082031 C 2.523438 13.050781 2.40625 13.136719 2.398438 13.3125 L 2.308594 15.558594 C 2.300781 15.703125 2.398438 15.808594 2.535156 15.832031 Z M 2.535156 15.832031 "/>
<path style=" stroke:none;fill-rule:nonzero;fill:rgb(0%,0%,0%);fill-opacity:1;" d="M 5.800781 16.445312 C 5.945312 16.472656 6.058594 16.398438 6.0625 16.246094 L 6.15625 13.984375 C 6.164062 13.832031 6.058594 13.714844 5.914062 13.6875 C 5.765625 13.660156 5.65625 13.738281 5.648438 13.890625 L 5.558594 16.152344 C 5.550781 16.304688 5.652344 16.417969 5.800781 16.445312 Z M 5.800781 16.445312 "/>
<path style=" stroke:none;fill-rule:nonzero;fill:rgb(0%,0%,0%);fill-opacity:1;" d="M 6.953125 16.644531 L 8.382812 16.914062 C 8.542969 16.941406 8.644531 16.871094 8.648438 16.75 C 8.65625 16.625 8.558594 16.519531 8.398438 16.488281 L 7.25 16.273438 C 7.230469 16.269531 7.222656 16.257812 7.222656 16.242188 L 7.308594 14.199219 C 7.3125 14.046875 7.210938 13.933594 7.0625 13.90625 C 6.917969 13.878906 6.804688 13.953125 6.800781 14.105469 L 6.707031 16.359375 C 6.703125 16.503906 6.796875 16.613281 6.953125 16.644531 Z M 6.953125 16.644531 "/>
<path style=" stroke:none;fill-rule:nonzero;fill:rgb(0%,0%,0%);fill-opacity:1;" d="M 9.292969 17.101562 C 9.4375 17.132812 9.550781 17.054688 9.554688 16.902344 L 9.578125 16.382812 L 10.058594 15.945312 L 10.726562 17.230469 C 10.777344 17.332031 10.855469 17.398438 10.960938 17.417969 C 11.105469 17.445312 11.207031 17.363281 11.214844 17.238281 C 11.214844 17.195312 11.203125 17.136719 11.171875 17.082031 L 10.410156 15.644531 L 11.121094 15.03125 C 11.164062 14.992188 11.1875 14.945312 11.1875 14.886719 C 11.191406 14.765625 11.09375 14.664062 10.96875 14.640625 C 10.890625 14.625 10.816406 14.648438 10.757812 14.699219 L 9.601562 15.742188 L 9.648438 14.640625 C 9.65625 14.488281 9.550781 14.371094 9.40625 14.34375 C 9.257812 14.316406 9.148438 14.394531 9.140625 14.542969 L 9.050781 16.808594 C 9.042969 16.960938 9.144531 17.074219 9.292969 17.101562 Z M 9.292969 17.101562 "/>
<path style="fill-rule:nonzero;fill:rgba(195, 231, 76, 1);fill-opacity:1;stroke-width:13;stroke-linecap:butt;stroke-linejoin:miter;stroke:rgb(0%,0%,0%);stroke-opacity:1;stroke-miterlimit:4;" d="M 411.076874 382.351287 C 411.075463 329.485291 383.180238 286.554523 348.822608 286.566941 C 314.464977 286.579359 286.596498 329.502899 286.597909 382.368894 C 286.607917 435.314426 314.494545 478.165658 348.852175 478.15324 C 383.218403 478.220359 411.086883 435.296819 411.076874 382.351287 Z M 411.076874 382.351287 " transform="matrix(0.0485454,0.00524746,-0.00524746,0.0485454,2.105186,-1.722397)"/>
<path style="fill-rule:nonzero;fill:rgba(195, 231, 76, 1);fill-opacity:1;stroke-width:2;stroke-linecap:butt;stroke-linejoin:miter;stroke:rgb(0%,0%,0%);stroke-opacity:1;stroke-miterlimit:4;" d="M 471.701798 452.202156 C 471.700434 445.071058 467.46637 439.282876 462.248304 439.282691 C 457.030238 439.282506 452.795878 445.065368 452.797242 452.196467 C 452.807454 459.3342 457.032669 465.115747 462.250735 465.115932 C 467.468801 465.116116 471.703162 459.333255 471.701798 452.202156 Z M 471.701798 452.202156 " transform="matrix(0.193897,0.278472,-0.258588,0.217414,48.128688,-206.565358)"/>
</g>
</svg>
